<svg width="33" height="32" viewBox="0 0 33 32" fill="none" xmlns="http://www.w3.org/2000/svg">
<g id="icon">
<path id="Vector" d="M8.92658 28C10.3552 28 13.2758 26.442 15.4239 24.7809C22.7996 24.9986 28.334 20.4162 28.334 14.4133C28.334 8.65107 23.0007 4 16.334 4C9.66732 4 4.33398 8.65107 4.33398 14.4133C4.33398 18.1709 6.55621 21.5045 9.90013 23.1771C9.42394 24.1737 8.53504 25.5255 8.05886 26.2014C7.49801 27.0033 7.83664 28 8.92658 28ZM10.0377 26.0983C9.95304 26.1327 9.92129 26.0639 9.9742 25.9838C10.5668 25.1933 11.4134 24.0019 11.7731 23.2687C12.0694 22.6731 11.9954 22.146 11.3181 21.8023C7.99537 20.1298 6.0906 17.4606 6.0906 14.4133C6.0906 9.71647 10.6303 5.89021 16.334 5.89021C22.0483 5.89021 26.5879 9.71647 26.5879 14.4133C26.5879 19.0988 22.0483 22.9251 16.334 22.9251C16.1224 22.9251 15.7943 22.9136 15.3711 22.9021C14.9266 22.9021 14.588 23.0511 14.1859 23.3947C12.8843 24.4143 11.0007 25.6745 10.0377 26.0983Z" fill="#F1301B"/>
</g>
</svg>
