<svg width="14" height="23" viewBox="0 0 14 23" fill="none" xmlns="http://www.w3.org/2000/svg">
<g id="chevron.backward">
<g id="Group">
<path id="Vector" d="M12.9547 10.7718L12.9547 10.7718L12.9515 10.7686L3.66378 1.6918C3.38406 1.39895 3.02047 1.2562 2.6172 1.2562C1.79261 1.2562 1.1391 1.88671 1.1391 2.7227C1.1391 3.14797 1.32092 3.50006 1.56424 3.75856L1.5699 3.76458L1.57582 3.77037L9.81464 11.8281L1.57582 19.8859L1.5699 19.8917L1.56423 19.8977C1.31916 20.1581 1.1391 20.5221 1.1391 20.9336C1.1391 21.7696 1.79265 22.4 2.6172 22.4C3.02122 22.4 3.38198 22.2571 3.6601 21.9798L12.9495 12.8896C13.2552 12.5986 13.4 12.2227 13.4 11.8281C13.4 11.4261 13.2502 11.0673 12.9547 10.7718Z" fill="white" stroke="white" stroke-width="0.8"/>
</g>
</g>
</svg>
