<svg width="105" height="32" viewBox="0 0 105 32" fill="none" xmlns="http://www.w3.org/2000/svg">
<rect width="105" height="32" rx="16" fill="#DFE4F7"/>
<path d="M25.4209 21.2285C24.5534 21.2285 23.8044 21.0339 23.1738 20.6445C22.5475 20.2552 22.063 19.703 21.7202 18.9878C21.3817 18.2684 21.2124 17.4157 21.2124 16.4297V16.417C21.2124 15.4268 21.3817 14.5741 21.7202 13.8589C22.063 13.1395 22.5475 12.5851 23.1738 12.1958C23.8001 11.8065 24.547 11.6118 25.4146 11.6118C26.1086 11.6118 26.7349 11.7493 27.2935 12.0244C27.8521 12.2952 28.307 12.6719 28.6582 13.1543C29.0094 13.6325 29.221 14.1826 29.293 14.8047L29.2866 14.8555H27.687L27.6807 14.8237C27.6045 14.464 27.4606 14.1509 27.249 13.8843C27.0374 13.6134 26.7751 13.404 26.4619 13.2559C26.1488 13.1035 25.7996 13.0273 25.4146 13.0273C24.8983 13.0273 24.4497 13.1649 24.0688 13.4399C23.688 13.715 23.3939 14.1064 23.1865 14.6143C22.9834 15.1178 22.8818 15.7166 22.8818 16.4106V16.4233C22.8818 17.1174 22.9834 17.7183 23.1865 18.2261C23.3939 18.7339 23.688 19.1253 24.0688 19.4004C24.4497 19.6755 24.9004 19.813 25.4209 19.813C25.8102 19.813 26.1593 19.7453 26.4683 19.6099C26.7814 19.4744 27.0417 19.284 27.249 19.0386C27.4606 18.7889 27.6045 18.4969 27.6807 18.1626L27.6934 18.1245H29.293V18.1753C29.2126 18.7847 28.9989 19.3179 28.6519 19.7749C28.3049 20.2319 27.8563 20.5895 27.3062 20.8477C26.756 21.1016 26.1276 21.2285 25.4209 21.2285ZM31.6987 23.4375C31.6014 23.4375 31.4998 23.4354 31.394 23.4312C31.2925 23.4269 31.193 23.4206 31.0957 23.4121V22.1997C31.1592 22.2082 31.2332 22.2124 31.3179 22.2124C31.4025 22.2166 31.485 22.2188 31.5654 22.2188C31.8913 22.2188 32.1515 22.1468 32.3462 22.0029C32.5451 21.8633 32.6868 21.6369 32.7715 21.3237L32.854 21.0063L30.3721 14.062H32.0986L33.9268 20.2065L33.4951 19.4829H34.041L33.6221 20.2065L35.4502 14.062H37.1133L34.625 21.1523C34.4261 21.7279 34.1976 22.1828 33.9395 22.5171C33.6813 22.8514 33.3703 23.0884 33.0063 23.228C32.6466 23.3677 32.2108 23.4375 31.6987 23.4375ZM41.1567 21.1396C40.4585 21.1396 39.8618 20.9958 39.3667 20.708C38.8716 20.4202 38.4928 20.0055 38.2305 19.4639C37.9681 18.9222 37.8369 18.2747 37.8369 17.5215V17.5088C37.8369 16.7598 37.9681 16.1187 38.2305 15.5854C38.4928 15.0522 38.8716 14.6439 39.3667 14.3604C39.8618 14.0726 40.4564 13.9287 41.1504 13.9287C41.7471 13.9287 42.2591 14.0324 42.6865 14.2397C43.1182 14.4429 43.4588 14.7264 43.7085 15.0903C43.9624 15.45 44.119 15.8711 44.1782 16.3535V16.3789H42.6865L42.6802 16.3599C42.6082 16.0213 42.4432 15.7441 42.1851 15.5283C41.9312 15.3125 41.5884 15.2046 41.1567 15.2046C40.797 15.2046 40.4881 15.2956 40.23 15.4775C39.9761 15.6595 39.7814 15.9219 39.646 16.2646C39.5106 16.6074 39.4429 17.0221 39.4429 17.5088V17.5215C39.4429 18.0124 39.5106 18.4334 39.646 18.7847C39.7856 19.1317 39.9824 19.3983 40.2363 19.5845C40.4902 19.7664 40.797 19.8574 41.1567 19.8574C41.5672 19.8574 41.8973 19.7643 42.147 19.5781C42.4009 19.3919 42.5765 19.1169 42.6738 18.7529L42.6865 18.7275L44.1719 18.7212L44.1655 18.7783C44.0894 19.248 43.9243 19.6606 43.6704 20.0161C43.4207 20.3716 43.0864 20.6488 42.6675 20.8477C42.2485 21.0423 41.745 21.1396 41.1567 21.1396ZM45.7461 21V11.377H47.3267V21H45.7461ZM49.3325 21V14.062H50.9067V21H49.3325ZM50.126 12.9004C49.8678 12.9004 49.6457 12.8094 49.4595 12.6274C49.2733 12.4455 49.1802 12.2275 49.1802 11.9736C49.1802 11.7113 49.2733 11.4912 49.4595 11.3135C49.6457 11.1315 49.8678 11.0405 50.126 11.0405C50.3841 11.0405 50.6042 11.1315 50.7861 11.3135C50.9723 11.4912 51.0654 11.7113 51.0654 11.9736C51.0654 12.2275 50.9723 12.4455 50.7861 12.6274C50.6042 12.8094 50.3841 12.9004 50.126 12.9004ZM52.8555 21V14.062H54.436V15.1284H54.5439C54.709 14.7518 54.9587 14.4577 55.293 14.2461C55.6273 14.0345 56.0441 13.9287 56.5435 13.9287C57.3179 13.9287 57.9103 14.153 58.3208 14.6016C58.7313 15.0501 58.9365 15.687 58.9365 16.5122V21H57.356V16.8804C57.356 16.3387 57.2417 15.9325 57.0132 15.6616C56.7889 15.3908 56.4377 15.2554 55.9595 15.2554C55.6463 15.2554 55.3755 15.3252 55.147 15.4648C54.9185 15.6045 54.7428 15.8013 54.6201 16.0552C54.4974 16.3091 54.436 16.6095 54.436 16.9565V21H52.8555ZM63.7861 23.4375C63.1768 23.4375 62.6499 23.3571 62.2056 23.1963C61.7655 23.0355 61.4185 22.807 61.1646 22.5107C60.9106 22.2188 60.7562 21.8781 60.7012 21.4888L60.7075 21.4697H62.2817L62.2944 21.4888C62.3452 21.7088 62.4997 21.8887 62.7578 22.0283C63.0202 22.1722 63.3714 22.2441 63.8115 22.2441C64.3532 22.2441 64.7721 22.1235 65.0684 21.8823C65.3688 21.6411 65.519 21.2983 65.519 20.854V19.521H65.4111C65.2799 19.7707 65.1086 19.9823 64.897 20.1558C64.6896 20.3293 64.4505 20.4604 64.1797 20.5493C63.9131 20.634 63.619 20.6763 63.2974 20.6763C62.7134 20.6763 62.2077 20.5366 61.7803 20.2573C61.3529 19.9738 61.0228 19.5824 60.79 19.083C60.5615 18.5837 60.4473 18.006 60.4473 17.3501V17.3374C60.4473 16.6688 60.5636 16.0806 60.7964 15.5728C61.0291 15.0649 61.3592 14.6672 61.7866 14.3794C62.2183 14.0916 62.7324 13.9478 63.3291 13.9478C63.6507 13.9478 63.9448 13.9985 64.2114 14.1001C64.4823 14.2017 64.7192 14.3455 64.9224 14.5317C65.1297 14.7179 65.299 14.9422 65.4302 15.2046H65.5127V14.062H67.0933V20.8286C67.0933 21.3618 66.9578 21.8231 66.687 22.2124C66.4204 22.606 66.0396 22.9085 65.5444 23.1201C65.0493 23.3317 64.4632 23.4375 63.7861 23.4375ZM63.7861 19.4194C64.1501 19.4194 64.4632 19.3327 64.7256 19.1592C64.988 18.9814 65.189 18.7381 65.3286 18.4292C65.4725 18.1203 65.5444 17.7606 65.5444 17.3501V17.3374C65.5444 16.9269 65.4725 16.5672 65.3286 16.2583C65.189 15.9451 64.988 15.7018 64.7256 15.5283C64.4632 15.3506 64.1501 15.2617 63.7861 15.2617C63.418 15.2617 63.1048 15.3506 62.8467 15.5283C62.5928 15.7018 62.3981 15.9451 62.2627 16.2583C62.1315 16.5672 62.0659 16.9269 62.0659 17.3374V17.3501C62.0659 17.7563 62.1315 18.116 62.2627 18.4292C62.3981 18.7381 62.5928 18.9814 62.8467 19.1592C63.1048 19.3327 63.418 19.4194 63.7861 19.4194ZM71.5303 21.91H84.5303V8.91H71.5303V21.91Z" fill="black"/>
</svg>
