<svg width="24" height="24" viewBox="0 0 24 24" fill="none" xmlns="http://www.w3.org/2000/svg">
<g id="flat-color-icons:google">
<g id="Group 3340">
<path id="Vector" d="M22.7861 9.84565H21.9V9.8H12V14.2H18.2167C17.3097 16.7614 14.8727 18.6 12 18.6C8.35515 18.6 5.4 15.6448 5.4 12C5.4 8.35515 8.35515 5.4 12 5.4C13.6825 5.4 15.2131 6.0347 16.3786 7.07145L19.4899 3.9601C17.5253 2.12915 14.8974 1 12 1C5.92525 1 1 5.92525 1 12C1 18.0748 5.92525 23 12 23C18.0748 23 23 18.0748 23 12C23 11.2625 22.9241 10.5425 22.7861 9.84565Z" fill="#FFC107"/>
<path id="Vector_2" d="M2.26758 6.88005L5.88163 9.5305C6.85953 7.1094 9.22783 5.4 11.9993 5.4C13.6817 5.4 15.2124 6.0347 16.3778 7.07145L19.4892 3.9601C17.5246 2.12915 14.8967 1 11.9993 1C7.77418 1 4.11008 3.38535 2.26758 6.88005Z" fill="#FF3D00"/>
<path id="Vector_3" d="M11.9998 23.0008C14.8411 23.0008 17.4228 21.9134 19.3747 20.1452L15.9702 17.2643C14.8287 18.1324 13.4339 18.6019 11.9998 18.6008C9.13868 18.6008 6.70933 16.7764 5.79413 14.2305L2.20703 16.9942C4.02753 20.5566 7.72463 23.0008 11.9998 23.0008Z" fill="#4CAF50"/>
<path id="Vector_4" d="M22.786 9.84643H21.9V9.80078H12V14.2008H18.2167C17.7828 15.4198 17.0013 16.485 15.9688 17.2648L15.9704 17.2637L19.375 20.1446C19.1341 20.3635 23 17.5008 23 12.0008C23 11.2632 22.9241 10.5433 22.786 9.84643Z" fill="#1976D2"/>
</g>
</g>
</svg>
