<svg width="32" height="32" viewBox="0 0 32 32" fill="none" xmlns="http://www.w3.org/2000/svg">
<g id="icon">
<g id="Vector">
<path fill-rule="evenodd" clip-rule="evenodd" d="M17.3327 17.7333H14.666C14.1505 17.7333 13.7327 18.1512 13.7327 18.6667V26.2667H18.266V18.6667C18.266 18.1512 17.8481 17.7333 17.3327 17.7333ZM14.666 16C13.1933 16 11.9993 17.1939 11.9993 18.6667V28H19.9993V18.6667C19.9993 17.1939 18.8054 16 17.3327 16H14.666Z" fill="black" fill-opacity="0.8"/>
<path d="M8.40822 28H23.5234C25.1098 28 26.037 27.0744 26.037 25.4746V12.8475L24.2384 11.5905V25.0061C24.2384 25.7488 23.8474 26.1602 23.1436 26.1602H8.78806C8.07308 26.1602 7.68207 25.7488 7.68207 25.0061V11.602L5.88344 12.8475V25.4746C5.88344 27.0744 6.81069 28 8.40822 28ZM2.66602 15.2815C2.66602 15.75 3.02351 16.1957 3.62677 16.1957C3.93958 16.1957 4.19653 16.0243 4.43113 15.83L15.6139 6.23117C15.8596 6.00262 16.1613 6.00262 16.4071 6.23117L27.5898 15.83C27.8133 16.0243 28.0702 16.1957 28.3831 16.1957C28.9081 16.1957 29.3327 15.8643 29.3327 15.3158C29.3327 14.973 29.221 14.7445 28.9863 14.5387L17.3567 4.53994C16.53 3.82002 15.5021 3.82002 14.6643 4.53994L3.02351 14.5387C2.77773 14.7445 2.66602 15.0187 2.66602 15.2815ZM23.2329 10.1278L26.037 12.5504V7.27104C26.037 6.76824 25.7242 6.44828 25.2327 6.44828H24.0373C23.557 6.44828 23.2329 6.76824 23.2329 7.27104V10.1278Z" fill="black" fill-opacity="0.8"/>
</g>
</g>
</svg>
