<svg width="28" height="28" viewBox="0 0 28 28" fill="none" xmlns="http://www.w3.org/2000/svg">
<g id="Group">
<path id="Vector (Stroke)" fill-rule="evenodd" clip-rule="evenodd" d="M6.79984 3.33335C5.88042 3.33335 4.99866 3.69859 4.34853 4.34872C3.69841 4.99884 3.33317 5.8806 3.33317 6.80002V21.2C3.33317 22.1194 3.69841 23.0012 4.34853 23.6513C4.99866 24.3015 5.88042 24.6667 6.79984 24.6667H21.1998C22.1193 24.6667 23.001 24.3015 23.6511 23.6513C24.3013 23.0012 24.6665 22.1194 24.6665 21.2V6.80002C24.6665 5.8806 24.3013 4.99884 23.6511 4.34872C23.001 3.69859 22.1193 3.33335 21.1998 3.33335H6.79984ZM2.46292 2.4631C3.61314 1.31288 5.17318 0.666687 6.79984 0.666687H21.1998C22.8265 0.666687 24.3865 1.31288 25.5368 2.4631C26.687 3.61332 27.3332 5.17336 27.3332 6.80002V21.2C27.3332 22.8267 26.687 24.3867 25.5368 25.5369C24.3865 26.6872 22.8265 27.3334 21.1998 27.3334H6.79984C5.17318 27.3334 3.61314 26.6872 2.46292 25.5369C1.31269 24.3867 0.666504 22.8267 0.666504 21.2V6.80002C0.666504 5.17336 1.31269 3.61332 2.46292 2.4631Z" fill="#3F0835"/>
<path id="Vector (Stroke)_2" fill-rule="evenodd" clip-rule="evenodd" d="M9.79964 8.13334C8.87917 8.13334 8.13298 8.87953 8.13298 9.80001C8.13298 10.7205 8.87917 11.4667 9.79964 11.4667C10.7201 11.4667 11.4663 10.7205 11.4663 9.80001C11.4663 8.87953 10.7201 8.13334 9.79964 8.13334ZM5.46631 9.80001C5.46631 7.40677 7.40641 5.46667 9.79964 5.46667C12.1929 5.46667 14.133 7.40677 14.133 9.80001C14.133 12.1932 12.1929 14.1333 9.79964 14.1333C7.40641 14.1333 5.46631 12.1932 5.46631 9.80001Z" fill="#3F0835"/>
<path id="Vector (Stroke)_3" fill-rule="evenodd" clip-rule="evenodd" d="M18.799 12.6263C19.3178 12.6252 19.8312 12.7323 20.3063 12.9408C20.7814 13.1492 21.2078 13.4543 21.5584 13.8367C21.5584 13.8367 21.5584 13.8367 21.5584 13.8367L26.3963 19.1128C26.4099 19.1276 26.4244 19.1434 26.4398 19.1602C26.5939 19.3276 26.8331 19.5876 27.0064 19.8921C27.2379 20.2992 27.333 20.7273 27.333 21.1998V21.3594C27.333 22.9437 26.7036 24.4632 25.5833 25.5835C24.463 26.7038 22.9436 27.3331 21.3593 27.3331H6.79967C6.27192 27.3331 5.79383 27.0219 5.58032 26.5392C5.36681 26.0566 5.45807 25.4934 5.81306 25.1029L16.0443 13.8481C16.3933 13.4643 16.8187 13.1572 17.2929 12.9469C17.7672 12.7365 18.2801 12.6273 18.799 12.6263ZM19.2351 15.3828C19.0993 15.3233 18.9526 15.2926 18.8044 15.293C18.6561 15.2933 18.5096 15.3244 18.3741 15.3845C18.2386 15.4446 18.1172 15.5323 18.0174 15.6419C18.0174 15.6419 18.0175 15.6419 18.0174 15.6419L9.81365 24.6665H21.3593C22.2364 24.6665 23.0775 24.3181 23.6977 23.6979C24.3179 23.0777 24.6663 22.2365 24.6663 21.3594V21.1998C24.6663 21.1927 24.6663 21.1863 24.6661 21.1807C24.6594 21.1721 24.6508 21.1615 24.6403 21.1489C24.5949 21.0946 24.5412 21.0359 24.4519 20.938L24.4289 20.9129L19.5929 15.6389C19.4928 15.5297 19.3708 15.4424 19.2351 15.3828Z" fill="#3F0835"/>
</g>
</svg>
