<svg width="24" height="24" viewBox="0 0 24 24" fill="none" xmlns="http://www.w3.org/2000/svg">
<g id="icon">
<g id="Vector">
<path fill-rule="evenodd" clip-rule="evenodd" d="M20.2071 3.79289C20.5976 4.18342 20.5976 4.81658 20.2071 5.20711L10.7071 14.7071C10.3166 15.0976 9.68342 15.0976 9.29289 14.7071C8.90237 14.3166 8.90237 13.6834 9.29289 13.2929L18.7929 3.79289C19.1834 3.40237 19.8166 3.40237 20.2071 3.79289Z" fill="black"/>
<path fill-rule="evenodd" clip-rule="evenodd" d="M5.7 4.8C5.20294 4.8 4.8 5.20294 4.8 5.7V18.3C4.8 18.7971 5.20294 19.2 5.7 19.2H18.3C18.7971 19.2 19.2 18.7971 19.2 18.3V12C19.2 11.5029 19.6029 11.1 20.1 11.1C20.5971 11.1 21 11.5029 21 12V18.3C21 19.7912 19.7912 21 18.3 21H5.7C4.20883 21 3 19.7912 3 18.3V5.7C3 4.20883 4.20883 3 5.7 3H12C12.4971 3 12.9 3.40294 12.9 3.9C12.9 4.39706 12.4971 4.8 12 4.8H5.7Z" fill="black"/>
<path fill-rule="evenodd" clip-rule="evenodd" d="M15 4C15 3.44772 15.4477 3 16 3H19C20.1046 3 21 3.89543 21 5V8C21 8.55228 20.5523 9 20 9C19.4477 9 19 8.55228 19 8V5H16C15.4477 5 15 4.55228 15 4Z" fill="black"/>
</g>
</g>
</svg>
