<svg width="26" height="23" viewBox="0 0 26 23" fill="none" xmlns="http://www.w3.org/2000/svg">
<g id="Group">
<g id="Vector">
<path fill-rule="evenodd" clip-rule="evenodd" d="M0.983818 0.666626C1.52717 0.666626 1.96764 1.10484 1.96764 1.64541L1.96765 19.4075C1.96765 20.2184 2.62836 20.8757 3.44338 20.8757H24.3495C24.8929 20.8757 25.3333 21.3139 25.3333 21.8545C25.3333 22.3951 24.8929 22.8333 24.3495 22.8333H3.44338C1.54166 22.8333 1.60558e-05 21.2995 1.60558e-05 19.4075L1.02183e-09 1.64541C1.02183e-09 1.10484 0.44047 0.666626 0.983818 0.666626Z" fill="black" fill-opacity="0.8"/>
<path fill-rule="evenodd" clip-rule="evenodd" d="M23.8755 6.54609C24.2234 6.96137 24.167 7.57856 23.7496 7.92462L16.7472 13.7301C15.3069 14.9242 13.1711 14.7525 11.9422 13.3437L9.43899 10.4741C8.90558 9.8626 7.97528 9.79615 7.35953 10.3256L1.62712 15.2542C1.21601 15.6076 0.59474 15.5626 0.239465 15.1536C-0.11581 14.7446 -0.0705521 14.1265 0.340552 13.773L6.07297 8.84443C7.50971 7.60916 9.68041 7.76421 10.925 9.19101L13.4283 12.0607C13.9549 12.6644 14.8703 12.738 15.4876 12.2262L22.4899 6.42077C22.9073 6.07471 23.5277 6.13081 23.8755 6.54609Z" fill="black" fill-opacity="0.8"/>
</g>
</g>
</svg>
