<svg width="24" height="24" viewBox="0 0 24 24" fill="none" xmlns="http://www.w3.org/2000/svg">
<g id="icon">
<path id="Vector (Stroke)" fill-rule="evenodd" clip-rule="evenodd" d="M18.7266 2C19.3457 2 19.8475 2.49746 19.8475 3.11111V7.55556C19.8475 8.16921 19.3457 8.66667 18.7266 8.66667H14.243C13.6239 8.66667 13.122 8.16921 13.122 7.55556C13.122 6.94191 13.6239 6.44444 14.243 6.44444H15.9778C15.4536 6.07571 14.8771 5.77975 14.2639 5.5677C13.0024 5.13153 11.6401 5.06927 10.3435 5.38855C9.04692 5.70783 7.87234 6.39481 6.96346 7.36542C6.05458 8.33603 5.45082 9.5482 5.22603 10.8536C5.12187 11.4585 4.54273 11.8652 3.93249 11.7619C3.32225 11.6587 2.912 11.0846 3.01616 10.4797C3.31428 8.74845 4.115 7.14086 5.32037 5.85363C6.52573 4.56639 8.08347 3.65532 9.803 3.23188C11.5225 2.80845 13.3293 2.89101 15.0022 3.46947C15.9466 3.79599 16.8251 4.27254 17.6057 4.87601V3.11111C17.6057 2.49746 18.1075 2 18.7266 2ZM20.0672 12.238C20.6774 12.3411 21.0879 12.915 20.9839 13.5199C20.6863 15.2516 19.8858 16.8596 18.6805 18.1472C17.4751 19.4349 15.9172 20.3462 14.1974 20.7697C12.4776 21.1932 10.6705 21.1105 8.99744 20.5317C8.05364 20.2052 7.17556 19.7288 6.39543 19.1256V20.8889C6.39543 21.5025 5.89358 22 5.27452 22C4.65545 22 4.1536 21.5025 4.1536 20.8889V16.4444C4.1536 15.8308 4.65545 15.3333 5.27452 15.3333H9.75817C10.3772 15.3333 10.8791 15.8308 10.8791 16.4444C10.8791 17.0581 10.3772 17.5556 9.75817 17.5556H8.02103C8.54548 17.9249 9.12238 18.2213 9.73615 18.4336C10.9977 18.87 12.3602 18.9324 13.6569 18.6131C14.9536 18.2937 16.1283 17.6066 17.0371 16.6357C17.946 15.6648 18.5495 14.4524 18.7739 13.1467C18.8779 12.5418 19.4569 12.1349 20.0672 12.238Z" fill="white"/>
</g>
</svg>
