<svg width="48" height="48" viewBox="0 0 48 48" fill="none" xmlns="http://www.w3.org/2000/svg">
<g id="Group 3398">
<rect id="Rectangle 4569" width="48" height="48" rx="12" fill="#F1301B"/>
<g id="LOGO">
<path id="Vector" d="M44.0242 29.8789L42.218 29.8878C41.4117 29.8878 40.6366 29.6481 39.8927 29.1687C39.1488 28.6893 38.5944 28.0701 38.2294 27.3109C37.9411 26.7155 37.7969 25.9979 37.7969 25.1579V17.6835H41.0971V21.0722H44.0242V24.5321H41.0971V24.8322C41.0971 25.3439 41.2104 25.738 41.4369 26.0145C41.6633 26.2909 41.9855 26.4293 42.4032 26.4295C42.4386 26.4295 43.9478 26.4264 44.0242 26.4206V29.8789Z" fill="white"/>
<path id="Vector_2" d="M27.9227 22.9494V26.4088H24.9956V29.7972H21.6953V22.3231C21.6953 21.4819 21.8395 20.7641 22.1278 20.1698C22.4925 19.4109 23.047 18.7917 23.7912 18.3123C24.5353 17.833 25.3104 17.5933 26.1165 17.5933H27.9227V21.0403C27.845 21.0403 26.6173 21.0496 26.3017 21.0523C25.8715 21.0558 25.5616 21.1905 25.3353 21.467C25.1089 21.7434 24.9956 22.1375 24.9956 22.6496V22.9494H27.9227Z" fill="white"/>
<path id="Vector_3" d="M32.2612 21.9957V29.7971H28.9609V21.9957H32.2612Z" fill="white"/>
<path id="Vector_4" d="M36.689 21.9959V29.7973H33.3888V21.9959H36.689ZM35.0475 17.5934C35.2773 17.5908 35.5053 17.6341 35.7182 17.7208C35.9311 17.8075 36.1245 17.9357 36.2872 18.0981C36.6358 18.4346 36.8102 18.8321 36.8102 19.2905C36.8102 19.7807 36.6453 20.183 36.3155 20.4972C35.9858 20.8114 35.5631 20.9686 35.0475 20.9686C34.5324 20.9686 34.1098 20.8114 33.7798 20.4972C33.4498 20.183 33.2847 19.7807 33.2847 19.2905C33.2847 18.8318 33.4592 18.4344 33.8081 18.0981C33.9707 17.9357 34.1641 17.8074 34.3769 17.7208C34.5897 17.6341 34.8177 17.5908 35.0475 17.5934ZM30.6104 17.5934C30.8401 17.5908 31.0681 17.6341 31.2809 17.7208C31.4938 17.8074 31.6871 17.9357 31.8497 18.0981C32.1986 18.4346 32.3731 18.8321 32.3731 19.2905C32.3731 19.7807 32.2081 20.183 31.8781 20.4972C31.548 20.8114 31.1256 20.9683 30.6108 20.9678C30.0957 20.9678 29.6731 20.8107 29.3431 20.4964C29.0131 20.1822 28.8479 19.7802 28.8477 19.2905C28.8477 18.8318 29.022 18.4344 29.3706 18.0981C29.5334 17.9357 29.7269 17.8074 29.9398 17.7207C30.1528 17.6341 30.3809 17.5908 30.6108 17.5934H30.6104Z" fill="white"/>
<path id="Vector_5" d="M16.4961 21.7186C17.635 21.7186 18.6115 22.1282 19.4255 22.9475C20.2396 23.7667 20.6466 24.7486 20.6466 25.8932C20.6466 27.0539 20.2342 28.0424 19.4092 28.8588C18.5843 29.6752 17.5891 30.0837 16.4235 30.0842C15.2587 30.0842 14.2621 29.6746 13.4339 28.8553C12.6056 28.0361 12.1914 27.0489 12.1914 25.8936C12.1914 24.7169 12.6056 23.727 13.4339 22.9238C14.2621 22.1206 15.2829 21.7189 16.4961 21.7186ZM16.4153 24.6923C16.2615 24.6899 16.1089 24.7197 15.9673 24.7799C15.8257 24.8401 15.6983 24.9293 15.5934 25.0418C15.3752 25.2738 15.2541 25.5804 15.2549 25.8989C15.2556 26.2173 15.3781 26.5234 15.5973 26.7544C15.7029 26.8664 15.8304 26.9556 15.9718 27.0165C16.1131 27.0775 16.2655 27.1089 16.4194 27.1089C16.5734 27.1089 16.7257 27.0775 16.8671 27.0165C17.0084 26.9556 17.1359 26.8664 17.2416 26.7544C17.4607 26.5234 17.5832 26.2173 17.584 25.8989C17.5847 25.5804 17.4636 25.2738 17.2454 25.0418C17.1392 24.9287 17.0105 24.8392 16.8675 24.779C16.7245 24.7188 16.5704 24.6893 16.4153 24.6923Z" fill="white"/>
<path id="Vector_6" d="M12.2856 17.4269C11.3874 17.4502 10.5304 17.7148 9.71452 18.2209C8.89865 18.7269 8.29671 19.3682 7.9087 20.1447C7.60301 20.7538 7.46129 21.4833 7.48355 22.3334L7.49132 22.6405L7.53597 24.3877L7.54373 24.6909C7.55694 25.2086 7.4411 25.6098 7.19624 25.8945C6.95124 26.1803 6.60957 26.3255 6.13084 26.3414C5.86566 26.3504 5.17493 26.3476 4.58594 26.3558V29.8319H6.42786C7.32579 29.8086 8.18282 29.544 8.99895 29.0379C9.81508 28.5319 10.4165 27.8902 10.8032 27.1129C11.1089 26.5039 11.2506 25.7743 11.2284 24.9243L11.2206 24.6171L11.1752 22.87V22.8463L11.1678 22.5667C11.1546 22.049 11.2704 21.6478 11.5153 21.3631C11.7603 21.0773 12.1016 20.9255 12.5807 20.9162C13.0159 20.9077 13.3005 20.9096 13.921 20.9003V17.4269H12.2856Z" fill="white"/>
</g>
</g>
</svg>
